<?xml version="1.0" encoding="utf-8"?>
<!-- Generator: Adobe Illustrator 22.1.0, SVG Export Plug-In . SVG Version: 6.00 Build 0)  -->
<svg version="1.1" xmlns="http://www.w3.org/2000/svg" xmlns:xlink="http://www.w3.org/1999/xlink" x="0px" y="0px"
	 viewBox="0 0 252 392" style="enable-background:new 0 0 252 392;" xml:space="preserve">
<style type="text/css">
	.st0{fill:#FFFFFF;}
</style>
<g id="Capa_2">
</g>
<g id="Capa_3">
	<path class="st0" d="M154.6,241.2C154.6,258.4,128,389,128,389s-26.6-130.6-26.6-147.8S113.3,210,128,210S154.6,224,154.6,241.2z"
		/>
	<path class="st0" d="M223,127H34c10.2,47.8,32.7,108.3,61,137.6c-1.3-9.1-2.1-15.9-2.1-19.3c0-22.8,15.7-41.3,35.2-41.3
		s35.2,18.5,35.2,41.3c0,3.6-0.9,10.8-2.3,20.5C189.7,237,212.6,175.4,223,127z M88.7,197.9c-12.5,0-22.6-10.1-22.6-22.6
		c0-12.5,10.1-22.6,22.6-22.6s22.6,10.1,22.6,22.6C111.3,187.8,101.2,197.9,88.7,197.9z M144.2,175.3c0-12.5,10.1-22.6,22.6-22.6
		c12.5,0,22.6,10.1,22.6,22.6c0,12.5-10.1,22.6-22.6,22.6C154.4,197.9,144.2,187.8,144.2,175.3z"/>
	<polygon class="st0" points="121.8,121.6 241.1,121.6 241.1,103.1 191.7,101.1 220.5,12.6 181.4,12.6 181.4,8.5 66.2,8.5
		66.2,14.7 25.1,14.7 51.8,103.1 4.5,103.1 4.5,121.6 	"/>
</g>
</svg>
